<?xml version="1.0" encoding="UTF-8"?><svg xmlns="http://www.w3.org/2000/svg" xmlns:xlink="http://www.w3.org/1999/xlink" height="1662.8" preserveAspectRatio="xMidYMid meet" version="1.0" viewBox="78.6 119.9 2797.9 1662.8" width="2797.9" zoomAndPan="magnify"><g><g id="change1_1"><path d="M1831.3,492.2c-6.1-17.6-11.9-30.4-15.1-43.9c-14.8-62.8,26.1-107.9,90.3-99.8 c57.9,7.3,109.4,71.6,62.6,119c-29.6,30-38.5,10.6-14.4,75.6c233,627.6,208,612.7,250.5,579.6c34.4-26.8,128.8-119.1,224.4-205.7 c194.1-176,261.7-147.9,255.9-223.5c-6-79.1,39.5-137,105.9-114.5c73.5,25,85.1,116.9,15.4,166.6 c-69.5,49.6,33.2-117.8-265.1,814.3c-71.3,222.8,1,121.8-672.3,47c-182.8-20.3-857.9-128.8-1106.1-95.6 c-350.1,46.8-389.2,119.6-412.3,23.9C175.6,806.2,216.6,714.5,160.1,687c-81.5-39.8-71.9-198.3,45-173c55,11.9,74.6,46.5,70.3,82.7 c-10.6,88.5-85-12.5,437.3,357.8c80,56.7,46.2,63.6,188.5-353.4c31-90.8,57.8-148.9,76.8-212.4 c-155.7-160.1,47.2-268.8,125.1-149.1c29.3,45,3.7,72.3-21.7,110.5c42.6,113,60.1,100.5,278.6,638.9 C1396.3,1078.6,1388.8,1053.9,1831.3,492.2z M1004.7,246.3c-39.4,18.2-21.7,70.5-0.9,78.4C1043.4,339.6,1090.6,244.2,1004.7,246.3z M2795.5,668c5.5-27.2-38.2-49.7-49.6-16.9C2718.9,729.6,2785.3,718.5,2795.5,668z M165,596.1c0.8,31.5,27.6,41.9,38.1,26.9 C243.4,565.5,163.9,552.3,165,596.1z M1923.1,432c7.9-25.1-41.9-41.5-51.9-12.7C1860.8,449.4,1913.1,464.1,1923.1,432z" fill="#FFC91F"/></g><g id="change2_1"><path d="M2123,1265.7c581.4-260.6,554.1-359.6,269.6,274c-30.3,67.5-1009.5-72.4-1885.7-127.8 c-33.1-2.1-34.8-20.9-41.5-56.5c-112.7-593.7-153.1-532,260.6-201.1c20.9-8.1-1.6,14.3,306.1-381.2c68-87.4,50.1-69.8,305.9,332.4 c36.7,57.7,28.9,58,80,22.4c492.3-343.7,452.7-350.3,504.4-249.5C2139,1300,2077,1182.1,2123,1265.7z M529.9,1342.9 c22.1,13.5,1729.4,164.2,1807.9,159.4c11.4-13.7-7,27.1,150.6-322.1c1.7-3.7-0.6-9.2-1.4-17.5 c-395.3,171.5-372.2,223.8-427.8,115.5c-202.4-394.6-186.3-370-204-379.4c-61.6,39.9,42.9-32-430.6,298.8 c-91.8,64.1-54.2,69.8-310.2-330.7c-34.7-54.3-32.5-58.8-72.8-7.1C721,1271.8,758,1261.3,683.8,1199.4 c-226.5-188.9-174.9-149.7-211.9-168.9C471.4,1076.2,512.7,1296,529.9,1342.9z" fill="#FFF"/></g></g></svg>