<svg width="19" height="19" viewBox="0 0 19 19" fill="none" xmlns="http://www.w3.org/2000/svg">
<g clip-path="url(#clip0_9_89)">
<path d="M14.6881 0.409515H4.36899C3.47847 0.409515 2.75354 1.0855 2.75354 1.91734V16.9684C2.75354 17.7994 3.47847 18.4762 4.36899 18.4762H14.6881C15.5786 18.4762 16.3035 17.7994 16.3035 16.9684V1.91734C16.3035 1.0855 15.5786 0.409515 14.6881 0.409515ZM7.79188 9.66568C8.08547 9.96078 8.08321 10.4373 7.78811 10.7301C7.64131 10.8754 7.44936 10.9484 7.2574 10.9484C7.06392 10.9484 6.87048 10.8739 6.72291 10.7256L5.23016 9.22002C4.93883 8.92643 4.93883 8.45292 5.23016 8.16012L6.72291 6.65455C7.01576 6.35871 7.49226 6.35719 7.78811 6.65003C8.08321 6.94287 8.08547 7.41938 7.79188 7.71445L6.82457 8.69005L7.79188 9.66568ZM9.52854 16.2178C9.11301 16.2178 8.77577 15.8806 8.77577 15.4651C8.77577 15.0495 9.11301 14.7123 9.52854 14.7123C9.94407 14.7123 10.2813 15.0495 10.2813 15.4651C10.2813 15.8806 9.94407 16.2178 9.52854 16.2178ZM13.8269 9.22002L12.3341 10.7256C12.1866 10.8739 11.9931 10.9484 11.7996 10.9484C11.6077 10.9484 11.4157 10.8754 11.2697 10.7301C10.9738 10.4373 10.9723 9.96075 11.2652 9.66568L12.2325 8.69008L11.2652 7.71448C10.9723 7.41938 10.9738 6.94287 11.2697 6.65007C11.5648 6.35722 12.042 6.35948 12.3341 6.65458L13.8269 8.16015C14.1182 8.45296 14.1182 8.92643 13.8269 9.22002Z" fill="#BEC2CE"/>
</g>
<defs>
<clipPath id="clip0_9_89">
<rect width="18.0667" height="18.0667" fill="white" transform="translate(0.495239 0.409546)"/>
</clipPath>
</defs>
</svg>
