<svg width="20" height="20" viewBox="0 0 20 20" fill="none" xmlns="http://www.w3.org/2000/svg">
<path d="M11.5885 5.66999V6.23119H7.51238V5.66999H5.59497V15.2664H7.78736V9.57963L9.83945 7.72583H13.62V5.66999H11.5885Z" fill="#BEC4CD"/>
<path d="M10.2191 7.73144L7.92004 9.59834V16.0857H14.8489V7.73144H10.2191Z" fill="#BEC4CD"/>
<path d="M14.645 7.72583H15.0528V15.8781H14.645V7.72583Z" fill="#BEC2CE"/>
<path d="M9.83923 7.72583H15.0265V8.13363H9.83923V7.72583Z" fill="#BEC2CE"/>
<path d="M9.83923 7.72583H10.247V10.051H9.83923V7.72583Z" fill="#BEC2CE"/>
<path d="M8.00414 9.93131L7.71606 9.64324L9.83924 7.72583L10.1273 8.01391L8.00414 9.93131Z" fill="#BEC2CE"/>
<path d="M7.71606 9.64324H10.247V10.051H7.71606V9.64324Z" fill="#BEC2CE"/>
<path d="M7.71606 9.76295H8.12386V16.284H7.71606V9.76295ZM8.12386 15.8781H15.0527V16.2859H8.12386V15.8781Z" fill="#BEC2CE"/>
<path d="M8.93958 10.9864H13.8313V11.3942H8.93958V10.9864ZM8.93958 12.2098H13.8313V12.6176H8.93958V12.2098ZM8.93958 13.4313H13.8313V13.8391H8.93958V13.4313Z" fill="#1C1E21"/>
<path d="M5.27124 15.0625H7.71617V15.4703H5.27124V15.0625Z" fill="#BEC2CE"/>
<path d="M5.27124 5.2809H5.67904V15.4703H5.27124V5.2809ZM13.4216 5.2809H13.8294V7.72583H13.4216V5.2809ZM5.67904 5.2809H7.71617V5.6887H5.67904V5.2809Z" fill="#BEC2CE"/>
<path d="M11.3845 5.2809H13.8294V5.6887H11.3845V5.2809ZM7.30835 4.4653H7.71615V6.50243H7.30835V4.4653ZM7.71615 6.0965H11.3845V6.5043H7.71615V6.0965ZM10.5689 4.4653H11.7923V4.8731H10.5689V4.4653Z" fill="#BEC2CE"/>
<path d="M7.30835 4.4653H8.53175V4.8731H7.30835V4.4653ZM8.12395 4.0575H10.9767V4.4653H8.12395V4.0575ZM11.3845 4.4653H11.7923V6.50243H11.3845V4.4653Z" fill="#BEC2CE"/>
</svg>
