<svg width="17" height="17" viewBox="0 0 17 17" fill="none" xmlns="http://www.w3.org/2000/svg">
<g clip-path="url(#clip0_9_82)">
<path d="M15.6263 12.338H10.4643C10.2934 12.338 10.1288 12.4058 10.0081 12.5271L9.55195 12.9833H7.50527L7.04907 12.5271C6.92842 12.4058 6.76389 12.338 6.59288 12.338H1.43099C1.07482 12.338 0.785767 12.6271 0.785767 12.9833V14.919C0.785767 15.6307 1.36455 16.2095 2.07625 16.2095H14.981C15.6927 16.2095 16.2715 15.6307 16.2715 14.919V12.9833C16.2715 12.6271 15.9824 12.338 15.6263 12.338Z" fill="#BEC4CD"/>
<path d="M12.5557 5.52407C12.5557 5.35503 12.4182 5.21823 12.2498 5.21823H11.944V5.82992H12.2498C12.4182 5.82992 12.5557 5.69315 12.5557 5.52407Z" fill="#BEC4CD"/>
<path d="M2.07617 11.0476H6.32569L6.78189 11.5038C6.90254 11.6245 7.06707 11.6929 7.23808 11.6929H9.81902C9.99 11.6929 10.1539 11.6245 10.2752 11.5038L10.7314 11.0476H14.9809C15.3371 11.0476 15.6262 10.7586 15.6262 10.4024V2.01433C15.6262 1.30262 15.0474 0.723846 14.3357 0.723846H2.72139C2.00969 0.723846 1.43091 1.30262 1.43091 2.01433V10.4024C1.43094 10.7586 1.72 11.0476 2.07617 11.0476ZM11.4541 4.97337C11.4541 4.83851 11.5638 4.72884 11.6993 4.72884H12.2496C12.6884 4.72884 13.0452 5.08565 13.0452 5.52378C13.0452 5.96255 12.6884 6.31936 12.2496 6.31936H11.9438V6.93105C11.9438 7.06655 11.8341 7.17625 11.6993 7.17625C11.5638 7.17625 11.4541 7.06655 11.4541 6.93105V4.97337ZM9.25186 4.72884H10.7198C10.8553 4.72884 10.965 4.83854 10.965 4.97337C10.965 5.10821 10.8553 5.21791 10.7198 5.21791H10.2307V6.93102C10.2307 7.06652 10.121 7.17622 9.98547 7.17622C9.8506 7.17622 9.74093 7.06652 9.74093 6.93102V5.21791H9.25183C9.11633 5.21791 9.00663 5.10821 9.00663 4.97337C9.00663 4.83854 9.11636 4.72884 9.25186 4.72884ZM6.80382 4.72884H8.27239C8.40789 4.72884 8.51759 4.83854 8.51759 4.97337C8.51759 5.10821 8.40789 5.21791 8.27239 5.21791H7.78329V6.93102C7.78329 7.06652 7.67359 7.17622 7.53809 7.17622C7.40322 7.17622 7.29355 7.06652 7.29355 6.93102V5.21791H6.80382C6.66895 5.21791 6.55928 5.10821 6.55928 4.97337C6.55928 4.83854 6.66898 4.72884 6.80382 4.72884ZM4.1119 4.97337C4.1119 4.83851 4.2216 4.72884 4.35644 4.72884C4.49194 4.72884 4.60164 4.83854 4.60164 4.97337V5.70765H5.58047V4.97337C5.58047 4.83851 5.69018 4.72884 5.82501 4.72884C5.96051 4.72884 6.06955 4.83854 6.06955 4.97337V6.93102C6.06955 7.06652 5.96051 7.17622 5.82501 7.17622C5.69014 7.17622 5.58047 7.06652 5.58047 6.93102V6.19738H4.60164V6.93102C4.60164 7.06652 4.49194 7.17622 4.35644 7.17622C4.22157 7.17622 4.1119 7.06652 4.1119 6.93102V4.97337Z" fill="#BEC4CD"/>
</g>
<defs>
<clipPath id="clip0_9_82">
<rect width="15.4857" height="15.4857" fill="white" transform="translate(0.785767 0.723816)"/>
</clipPath>
</defs>
</svg>
