<svg width="22" height="21" viewBox="0 0 22 21" fill="none" xmlns="http://www.w3.org/2000/svg">
<path d="M12.9873 16.4889H14.7079C15.6582 16.4889 16.4286 15.7186 16.4286 14.7683V12.6705C16.4286 11.8809 16.9659 11.1927 17.7319 11.0012L19.0353 10.6753C19.2524 10.621 19.2524 10.3123 19.0353 10.2581L17.7319 9.93216C16.9659 9.74066 16.4286 9.05249 16.4286 8.26293V4.44446H12.9873" stroke="#BEC2CE" stroke-width="1.72063"/>
<path d="M9.54603 4.44446H7.8254C6.87512 4.44446 6.10476 5.21481 6.10476 6.16509V8.26293C6.10476 9.05249 5.56742 9.74066 4.80144 9.93216L3.49812 10.2581C3.2809 10.3123 3.2809 10.621 3.49812 10.6753L4.80144 11.0012C5.56742 11.1927 6.10476 11.8809 6.10476 12.6705V16.4889H9.54603" stroke="#BEC2CE" stroke-width="1.72063"/>
</svg>
