<svg width="14" height="13" viewBox="0 0 14 13" fill="none" xmlns="http://www.w3.org/2000/svg">
<g clip-path="url(#clip0_9_57)">
<path d="M4.73352 11.582C4.73352 11.6566 4.77492 11.725 4.84076 11.7598C4.90655 11.7946 4.98654 11.7901 5.04803 11.748L6.43294 10.8024L4.73355 9.99243V11.582H4.73352Z" fill="#BEC2CE"/>
<path d="M12.9721 0.916945C12.9341 0.881876 12.885 0.863524 12.8353 0.863524C12.8054 0.863524 12.7756 0.870161 12.7474 0.884038L0.791601 6.74866C0.6694 6.80872 0.592073 6.93351 0.592902 7.07002C0.593732 7.20634 0.672366 7.33028 0.795447 7.38901L3.94642 8.89041L10.2468 3.71202L4.72711 9.26236L8.65244 11.1327C8.70065 11.1558 8.7533 11.1673 8.80538 11.1673C8.84983 11.1673 8.89385 11.1592 8.93575 11.1427C9.02719 11.1066 9.09984 11.0342 9.13611 10.9427L13.0225 1.13852C13.0533 1.06137 13.0332 0.973156 12.9721 0.916945Z" fill="#BEC2CE"/>
</g>
<defs>
<clipPath id="clip0_9_57">
<rect width="12.4439" height="12.4439" fill="white" transform="translate(0.592896 0.10136)"/>
</clipPath>
</defs>
</svg>
